<mxfile host="app.diagrams.net" agent="Mozilla/5.0 (Windows NT 10.0; Win64; x64) AppleWebKit/537.36 (KHTML, like Gecko) Chrome/136.0.0.0 Safari/537.36" version="27.0.6">
  <diagram name="Page-1" id="0jeLPhrJuaiK2oUke8C_">
    <mxGraphModel dx="474" dy="256" grid="1" gridSize="10" guides="1" tooltips="1" connect="1" arrows="1" fold="1" page="1" pageScale="1" pageWidth="827" pageHeight="1169" math="0" shadow="0">
      <root>
        <mxCell id="0" />
        <mxCell id="1" parent="0" />
        <mxCell id="AXt6WOQ202uIH-xuPSSv-11" style="edgeStyle=orthogonalEdgeStyle;rounded=0;orthogonalLoop=1;jettySize=auto;html=1;strokeColor=#FF6392;fontColor=#5AA9E6;fillColor=#FFE45E;endArrow=none;startFill=0;strokeWidth=4;curved=1;" edge="1" parent="1" source="AXt6WOQ202uIH-xuPSSv-1">
          <mxGeometry relative="1" as="geometry">
            <mxPoint x="400" y="340" as="targetPoint" />
            <Array as="points">
              <mxPoint x="450" y="340" />
              <mxPoint x="450" y="350" />
              <mxPoint x="410" y="350" />
              <mxPoint x="410" y="340" />
            </Array>
          </mxGeometry>
        </mxCell>
        <mxCell id="AXt6WOQ202uIH-xuPSSv-12" value="Faalmechanisme" style="edgeLabel;html=1;align=center;verticalAlign=middle;resizable=0;points=[];strokeColor=#FF6392;fontColor=#5AA9E6;fillColor=#FFE45E;labelBackgroundColor=none;fontSize=8;" vertex="1" connectable="0" parent="AXt6WOQ202uIH-xuPSSv-11">
          <mxGeometry x="0.2857" y="-1" relative="1" as="geometry">
            <mxPoint x="9" y="-18" as="offset" />
          </mxGeometry>
        </mxCell>
        <mxCell id="AXt6WOQ202uIH-xuPSSv-1" value="" style="rounded=0;whiteSpace=wrap;html=1;labelBackgroundColor=none;fillColor=#FFE45E;strokeColor=#FF6392;fontColor=#5AA9E6;" vertex="1" parent="1">
          <mxGeometry x="460" y="310" width="120" height="60" as="geometry" />
        </mxCell>
        <mxCell id="AXt6WOQ202uIH-xuPSSv-8" value="" style="rounded=0;whiteSpace=wrap;html=1;labelBackgroundColor=none;fillColor=#FFE45E;strokeColor=#FF6392;fontColor=#5AA9E6;" vertex="1" parent="1">
          <mxGeometry x="485" y="325" width="70" height="30" as="geometry" />
        </mxCell>
        <mxCell id="AXt6WOQ202uIH-xuPSSv-13" style="edgeStyle=orthogonalEdgeStyle;rounded=0;orthogonalLoop=1;jettySize=auto;html=1;strokeColor=#FF6392;fontColor=#5AA9E6;fillColor=#FFE45E;endArrow=none;startFill=0;" edge="1" parent="1" source="AXt6WOQ202uIH-xuPSSv-9">
          <mxGeometry relative="1" as="geometry">
            <mxPoint x="550" y="280" as="targetPoint" />
            <Array as="points">
              <mxPoint x="486" y="280" />
              <mxPoint x="540" y="280" />
            </Array>
          </mxGeometry>
        </mxCell>
        <mxCell id="AXt6WOQ202uIH-xuPSSv-14" value="Eindstandssensor" style="edgeLabel;html=1;align=center;verticalAlign=middle;resizable=0;points=[];strokeColor=#FF6392;fontColor=#5AA9E6;fillColor=#FFE45E;labelBackgroundColor=none;fontSize=8;" vertex="1" connectable="0" parent="AXt6WOQ202uIH-xuPSSv-13">
          <mxGeometry x="0.5792" y="-1" relative="1" as="geometry">
            <mxPoint x="-8" y="-8" as="offset" />
          </mxGeometry>
        </mxCell>
        <mxCell id="AXt6WOQ202uIH-xuPSSv-9" value="" style="verticalLabelPosition=bottom;verticalAlign=top;html=1;shape=mxgraph.basic.donut;dx=5;strokeColor=#FF6392;fontColor=#5AA9E6;fillColor=#FFE45E;labelBackgroundColor=none;" vertex="1" parent="1">
          <mxGeometry x="478" y="335" width="16" height="10" as="geometry" />
        </mxCell>
      </root>
    </mxGraphModel>
  </diagram>
</mxfile>
